<svg width="20" height="21" viewBox="0 0 20 21" fill="none" xmlns="http://www.w3.org/2000/svg">
<path fill-rule="evenodd" clip-rule="evenodd" d="M7.21048 15.6C7.07265 15.4567 6.99734 15.2646 7.00109 15.0658C7.00484 14.8671 7.08735 14.6779 7.23048 14.54L11.1685 10.83L7.23048 7.11996C7.15614 7.05253 7.09608 6.97085 7.05388 6.87978C7.01168 6.78871 6.98819 6.6901 6.9848 6.58978C6.98141 6.48946 6.99819 6.38949 7.03415 6.29578C7.07011 6.20206 7.12451 6.11652 7.19413 6.04422C7.26376 5.97192 7.34719 5.91433 7.43947 5.87486C7.53176 5.8354 7.63103 5.81486 7.73141 5.81446C7.83178 5.81406 7.93121 5.83382 8.02381 5.87255C8.11641 5.91129 8.20029 5.96822 8.27048 6.03996L12.7705 10.29C12.8431 10.3599 12.9008 10.4438 12.9402 10.5366C12.9797 10.6294 13 10.7291 13 10.83C13 10.9308 12.9797 11.0306 12.9402 11.1233C12.9008 11.2161 12.8431 11.3 12.7705 11.37L8.27048 15.62C8.12722 15.7578 7.9351 15.8331 7.73634 15.8294C7.53758 15.8256 7.34844 15.7431 7.21048 15.6Z" fill="white"/>
</svg>
